<svg xmlns="http://www.w3.org/2000/svg" viewBox="0 0 1024 1024">
  <rect x="64" y="64" width="896" height="896" rx="220" fill="#F8FAFC"/>
  <rect x="64" y="64" width="896" height="896" rx="220" fill="none" stroke="#E5E7EB" stroke-width="18"/>
  <g transform="translate(92 92) scale(0.82)">
<path fill="#0A0A0A" opacity="1" stroke="none"
	d="
M501.583984,865.465576
	C470.405090,848.421936 438.155518,835.193665 403.637909,827.894165
	C387.284882,824.435913 370.784119,822.552063 354.036865,823.318848
	C352.211029,823.402466 350.373962,823.302979 348.545380,823.217712
	C348.082184,823.196167 347.631683,822.902771 347.088074,822.701965
	C346.078094,819.757202 347.550415,817.122803 348.202728,814.482971
	C354.048920,790.823730 357.265594,766.782288 358.838501,742.500427
	C359.516083,732.039612 360.057190,721.569092 360.565918,711.098450
	C360.816772,705.935120 363.613159,703.189392 368.472595,702.302979
	C374.719421,701.163513 380.994202,700.607239 387.360229,701.287903
	C392.724365,701.861389 394.275024,700.511902 393.642365,695.253540
	C392.724823,687.627502 390.010712,680.562378 385.430664,672.403442
	C378.667664,686.737244 369.365356,696.912109 354.702850,701.635010
	C359.991394,688.430420 362.147369,675.303528 356.843506,661.467041
	C350.169250,684.351501 340.516266,704.692200 316.063354,714.224976
	C323.635437,695.631470 321.424896,678.033142 311.852448,660.523621
	C307.341095,676.924072 299.167267,690.080200 282.840790,696.646973
	C281.372162,694.461548 282.888397,693.142639 283.525208,691.770203
	C291.633881,674.295898 288.980103,658.249268 276.586395,643.923340
	C269.511047,635.744995 261.500671,628.383179 254.213379,620.378723
	C244.070465,609.237671 237.204590,596.175964 232.733780,581.825867
	C232.251495,580.277954 232.097382,578.558960 229.730865,576.868652
	C228.284454,591.569092 229.367813,605.380310 233.185226,619.017273
	C236.979752,632.572388 243.427643,644.772095 252.739044,655.590149
	C250.045563,656.954590 248.505157,655.533875 246.954910,654.818054
	C220.456329,642.581665 202.312073,622.143555 190.115814,596.124023
	C176.139023,566.305847 171.964569,534.663147 173.843323,502.097321
	C174.793686,485.623993 178.365173,469.483154 181.125687,453.247772
	C181.283981,452.316772 181.894653,451.340790 180.551270,449.458710
	C166.551849,474.404358 158.121384,500.438873 156.241440,528.523254
	C154.357300,556.670288 159.272659,583.378845 174.653397,608.000427
	C171.510559,608.207458 170.898834,606.393188 169.940186,605.188782
	C152.642624,583.456360 144.403000,558.424683 142.616821,530.933350
	C140.406784,496.918030 148.413879,464.818390 160.624695,433.532288
	C181.058212,381.178192 205.990829,330.862091 230.532806,280.378418
	C246.080948,248.395401 263.701294,217.619263 285.606018,189.494308
	C336.796051,123.767952 403.031250,81.621109 484.800659,65.452644
	C561.594543,50.268009 633.798950,64.192596 701.072388,103.975052
	C706.504578,107.187447 711.511841,111.126892 716.651001,114.819786
	C717.772095,115.625420 719.401733,116.224548 719.252991,118.207321
	C717.497070,119.346680 715.657104,118.449699 713.989563,118.223885
	C695.843262,115.766479 679.300293,120.672951 663.665955,129.289276
	C638.897461,142.939575 621.173645,163.765854 605.868896,186.938370
	C581.257812,224.201263 563.654297,264.715393 550.287903,307.182434
	C549.306824,310.299652 548.039124,313.520782 553.599304,314.303253
	C557.422424,306.815094 559.485596,298.562683 562.386841,290.670227
	C576.247742,252.964218 593.603027,217.074371 617.076050,184.342072
	C631.324829,164.472595 648.106262,147.269028 670.370972,136.313156
	C687.698914,127.786568 705.711731,124.706924 724.614075,130.702988
	C730.069214,132.433426 735.044434,135.038956 739.722534,138.316696
	C741.264465,139.397049 742.575134,141.186340 744.911316,140.852554
	C746.220032,138.365692 742.700439,137.218506 743.465271,134.610016
	C748.181885,133.967667 752.815063,135.078751 757.401489,136.260361
	C776.693481,141.230652 791.723206,152.861328 804.845764,167.221863
	C822.430176,186.465164 834.923706,209.092529 847.119385,231.887238
	C847.504883,232.607697 847.751221,233.415817 847.958618,234.210159
	C848.021240,234.450302 847.733398,234.781906 847.274170,235.826996
	C839.301147,225.327469 832.425171,214.252335 820.544434,207.676941
	C822.574829,210.670181 824.554626,213.699387 826.649475,216.646790
	C828.867676,219.767700 831.187927,222.816422 833.476440,225.887039
	C864.298767,267.243073 883.132019,313.785797 893.336426,364.078278
	C896.720520,380.757080 899.514282,397.554016 898.972961,414.594940
	C897.969482,446.181396 891.369446,476.343689 874.178101,503.475922
	C870.664612,509.021088 866.541870,514.069641 861.498047,518.627686
	C874.661377,495.015869 879.572388,469.471069 880.636169,443.067780
	C881.690247,416.903900 879.255249,391.059418 872.432007,365.760132
	C871.998596,365.773987 871.565125,365.787872 871.131653,365.801727
	C871.131653,368.842377 871.043030,371.886047 871.145752,374.923218
	C871.887268,396.851868 870.161926,418.537476 864.196594,439.716827
	C858.849670,458.700562 850.137268,476.046478 837.350342,491.149994
	C833.884766,495.243408 832.897217,499.029907 834.592163,504.328522
	C845.051880,537.026855 853.020081,570.326904 857.865601,604.346985
	C863.356995,642.901123 861.433655,680.784668 847.079590,717.382751
	C840.382202,734.458740 830.775330,749.811340 817.217468,762.427917
	C816.119873,763.449341 815.253601,765.252380 812.629822,764.391785
	C836.533081,733.661072 842.652283,697.920410 842.285217,660.525574
	C842.182312,650.045776 840.763367,639.514709 837.565186,628.191956
	C834.385071,633.826416 835.032654,638.980835 834.458252,643.753723
	C829.763550,682.765381 818.110229,719.539856 799.147156,753.908386
	C784.606384,780.261719 765.930054,802.995667 739.583252,818.545349
	C732.826660,822.533020 725.808777,826.003418 718.226379,828.175171
	C717.188110,828.472473 716.113464,829.375916 714.501221,828.021851
	C746.816284,801.339111 757.611389,764.764587 761.930969,725.079956
	C743.542053,757.952881 722.044495,787.085999 683.349426,797.777832
	C682.564819,796.076782 682.953674,795.497559 683.475525,795.090332
	C701.198120,781.260742 709.598083,761.830688 715.608398,741.083740
	C717.453064,734.716125 718.363342,728.072205 719.596252,721.534973
	C720.354614,717.513977 719.561768,715.434204 714.486389,714.852173
	C701.249939,713.334412 689.367737,707.332092 677.391174,701.888245
	C669.659058,698.373657 662.057983,694.567749 654.292480,691.131226
	C651.064636,689.702881 649.307739,687.615356 648.979248,684.092407
	C651.533264,683.218689 653.350220,684.682373 655.263000,685.489136
	C672.447571,692.736755 689.487976,700.372925 707.447693,705.583008
	C718.548584,708.803284 724.754150,705.652466 728.323120,694.879883
	C730.833008,687.304321 732.772217,679.541687 735.084656,671.898376
	C738.291748,661.297668 743.778748,651.959534 752.287903,644.878723
	C757.248718,640.750732 759.458557,635.811035 759.601013,629.773682
	C759.706604,625.301392 761.570679,622.285522 765.290710,619.987183
	C767.686218,618.507263 769.818115,616.591736 772.025452,614.818298
	C776.388855,611.312683 779.256042,607.202515 778.659546,601.131897
	C777.977051,594.186890 780.982605,588.586853 785.781128,583.698486
	C793.015015,576.329102 800.393005,569.058899 805.421997,559.853271
	C809.214600,552.911133 808.729980,551.356995 802.039917,547.072693
	C786.666626,537.227539 773.272644,525.588623 765.734314,508.273315
	C761.564697,498.695953 762.351746,489.120514 764.085327,479.359314
	C764.431580,477.409485 765.112244,475.575958 763.551819,473.690430
	C761.915649,471.713379 764.003906,470.285126 764.873657,468.875824
	C776.167358,450.577057 783.331299,430.897247 785.072632,409.361908
	C785.203735,407.740082 785.894531,406.049927 783.272949,404.363739
	C775.062927,421.683838 766.014465,438.423279 751.117310,451.207733
	C749.705017,449.378479 750.473816,448.598206 751.049011,447.810791
	C756.896484,439.805023 759.259705,430.430084 761.570129,421.037170
	C762.232849,418.343018 761.077393,416.638336 758.652527,415.432831
	C741.780945,407.045807 724.765015,399.046753 706.521484,393.958099
	C703.261230,393.048737 700.823242,393.532593 698.218018,395.547729
	C687.513672,403.827423 676.011719,410.863464 663.964844,417.013702
	C662.782471,417.617279 661.561157,418.158752 660.317078,418.618530
	C659.937256,418.758911 659.420776,418.529205 657.436462,418.265991
	C670.700256,409.606812 680.873718,399.369507 689.579773,387.651367
	C698.202759,376.044922 705.423401,363.630096 711.166565,350.112885
	C696.460083,364.680237 682.269470,379.647888 666.121094,392.494904
	C649.863159,405.429108 632.724915,417.032745 613.655396,427.172272
	C610.583435,408.766174 612.307251,390.910583 611.260986,372.533783
	C607.852722,374.653839 608.311951,377.013824 608.146057,379.046600
	C605.349182,413.324677 608.265015,447.239716 614.810730,480.904236
	C619.986389,507.522156 627.533142,533.326294 641.632202,556.789001
	C647.850708,567.137390 655.132874,576.612610 664.865479,583.979919
	C665.383179,584.371765 665.823303,584.893738 666.206543,585.422485
	C666.371216,585.649780 666.298157,586.049500 666.451355,587.458069
	C652.436951,579.864990 640.663269,570.489746 630.127441,559.491821
	C619.584961,548.486938 611.078735,536.001526 603.661255,522.484680
	C602.264832,527.202148 603.146606,531.887390 603.490601,536.455261
	C606.163757,571.951294 613.352661,606.627747 623.415955,640.697144
	C631.103027,666.721924 642.127441,691.291504 657.875671,713.535828
	C660.454224,717.178040 663.815552,720.265869 666.812988,723.611816
	C667.835327,724.752991 669.835938,725.248230 669.209595,728.302673
	C643.346924,711.822266 626.097595,688.120117 609.847961,663.344971
	C616.678955,700.898865 627.607422,736.422852 656.541199,763.549072
	C654.731750,765.394592 653.481995,763.927002 652.281006,763.427185
	C631.839722,754.920654 614.070679,742.498657 598.640747,726.670654
	C597.826355,725.835327 597.031494,724.979187 596.186584,724.175842
	C592.638367,720.802368 590.983398,721.044434 589.534302,725.676270
	C585.953186,737.123230 583.180847,748.775330 581.232666,760.623901
	C580.630432,764.286560 581.936523,766.478394 585.131775,768.315125
	C593.079651,772.883545 600.663696,778.005127 607.825500,783.782043
	C610.938171,786.292908 612.088684,788.875854 611.363281,792.812866
	C609.644470,802.140015 608.207581,811.519592 606.705383,820.885803
	C606.389587,822.854919 606.276123,824.856934 606.080994,826.844849
	C605.786377,829.846069 607.012207,831.247070 610.128174,831.898682
	C619.717102,833.903931 620.413940,835.115051 618.817017,844.798401
	C617.835999,850.747559 616.180420,856.479187 613.409546,861.878235
	C610.691956,867.173218 613.266235,879.485474 618.011597,883.349182
	C637.922241,899.561279 657.068970,916.631775 675.622253,934.372925
	C687.920288,946.132446 699.403137,958.653076 710.259460,971.748962
	C711.383606,973.104980 712.683289,974.459229 712.779907,976.325562
	C711.164551,977.776672 709.426331,977.325684 707.836548,977.328979
	C690.336670,977.364746 672.836426,977.298767 655.336975,977.390686
	C652.155029,977.407471 649.718567,976.528442 647.261902,974.378357
	C614.154602,945.403564 580.946655,916.545410 544.554688,891.644043
	C530.793823,882.228210 516.574463,873.570190 501.583984,865.465576
M512.146179,606.099976
	C493.711334,607.446228 475.867859,605.271912 459.179504,596.816223
	C455.025421,594.711426 453.962006,597.062378 452.861633,600.225708
	C441.349792,633.318848 427.495026,665.380066 410.634155,696.122620
	C407.357422,702.097107 408.355774,703.565796 415.281738,704.756348
	C423.644257,706.193848 432.040710,707.583374 440.273499,709.601440
	C485.049896,720.576843 527.334229,737.740601 567.067322,761.159485
	C568.571045,762.045776 569.930237,763.530640 572.267334,763.075867
	C572.702393,761.753967 573.298950,760.388611 573.598755,758.960999
	C576.677795,744.302246 579.452515,729.559631 585.046631,715.574768
	C586.086609,712.974609 584.645752,711.478943 583.306580,709.802551
	C560.248840,680.939026 542.353455,649.137390 528.997253,614.723755
	C524.778748,603.854248 524.644836,603.906250 512.146179,606.099976
M556.171692,766.342346
	C527.306091,750.145081 497.066559,737.138550 465.410126,727.476562
	C438.587219,719.289856 411.384979,713.006409 383.201233,712.079468
	C379.385345,711.953918 375.539490,712.165161 371.734589,712.515198
	C369.770477,712.695801 368.364380,713.999023 368.441559,716.235718
	C368.518097,718.453674 369.899292,719.492188 371.955658,719.728821
	C372.943024,719.842407 373.955017,719.856506 374.947754,719.791565
	C391.062042,718.737610 406.888123,721.128967 422.557434,724.325500
	C462.790131,732.532898 500.986420,746.579956 537.418274,765.450623
	C550.300842,772.123413 562.900574,779.299805 574.168945,788.545044
	C580.635925,793.850891 584.510376,805.492371 581.643555,812.441223
	C577.159180,823.310608 575.651672,834.194580 579.548218,845.519043
	C579.607727,845.692017 579.223267,846.017761 578.980408,846.366455
	C576.604126,846.102356 575.509644,843.983582 573.931213,842.648010
	C569.738953,839.100952 564.987671,837.702637 559.566223,838.165710
	C556.113953,838.460693 554.666321,840.273254 555.632019,843.523926
	C557.667297,850.375183 559.471863,857.319519 565.099731,862.473511
	C569.218506,866.245422 573.788025,867.486023 580.237061,864.958801
	C574.285095,880.186218 575.760559,892.937500 586.025879,905.179626
	C594.594788,892.533020 597.427246,879.937805 591.317566,865.906494
	C601.299316,866.852783 605.316589,864.292053 608.487732,855.293213
	C609.755432,851.695862 610.548645,847.926147 611.467651,844.212585
	C612.471313,840.156494 610.663269,838.705322 606.702881,839.051880
	C602.660767,839.405640 599.473022,841.197754 596.646851,844.019409
	C595.221008,845.442871 594.246460,847.712158 591.703247,847.598633
	C590.755676,846.332886 591.433655,845.222046 591.854187,844.199219
	C596.141174,833.772461 594.575195,823.537903 590.323730,813.656738
	C588.550476,809.535339 587.559875,805.558899 587.837219,801.150146
	C588.298401,793.819519 585.401245,787.935303 580.135742,782.944885
	C573.167664,776.340881 564.717041,771.926575 556.171692,766.342346
M463.645111,578.833008
	C482.469482,579.935730 499.326233,574.554749 513.697510,562.485413
	C536.765198,543.112732 546.934937,517.311157 547.383972,487.952820
	C547.748291,464.135254 539.970642,442.477814 524.708862,423.792053
	C505.043091,399.714386 472.556519,390.091095 444.153259,399.816406
	C404.764465,413.303070 384.516083,457.506073 386.685394,493.840851
	C387.653595,510.057892 392.333405,525.289124 400.868713,539.167114
	C415.082367,562.278015 435.206879,576.326782 463.645111,578.833008
M710.832397,388.406647
	C712.907349,389.000031 714.973267,389.627228 717.058655,390.181427
	C732.287781,394.228729 747.922363,397.224548 760.673035,407.544006
	C762.658264,409.150665 764.079224,408.161926 764.637146,405.871765
	C765.030273,404.257843 765.363159,402.624695 765.628784,400.984894
	C769.892517,374.663849 769.196350,348.339203 765.578369,322.026031
	C765.322815,320.167511 765.363831,317.993500 763.220581,316.796722
	C760.471863,317.967499 759.615601,320.671753 758.383362,322.905121
	C746.085022,345.195099 730.911316,365.271942 712.630005,383.004547
	C711.305054,384.289764 709.264221,385.486969 710.832397,388.406647
M549.931641,423.412689
	C548.343018,419.747467 547.020081,415.937653 545.117920,412.443085
	C538.315247,399.945190 537.335388,386.884552 540.647949,373.248505
	C543.945496,359.673676 547.147949,346.075256 550.304871,332.466919
	C552.505493,322.980591 550.317932,319.448029 540.725220,316.991241
	C533.634705,315.175323 526.506165,313.503387 519.375427,311.849884
	C511.596039,310.045990 503.815674,308.235931 495.997284,306.613861
	C487.126282,304.773438 483.414307,307.036407 480.802307,315.726288
	C478.934326,321.940857 477.111420,328.173004 475.463440,334.448547
	C473.834137,340.652710 472.449677,346.921204 470.957794,353.161469
	C473.163177,351.922363 473.396851,349.898499 473.937317,348.073761
	C477.053406,337.553375 480.082550,327.007263 483.149475,316.472290
	C484.771729,310.899872 486.906006,309.152740 491.489532,310.211273
	C506.408783,313.656647 521.316833,317.156311 536.184204,320.817993
	C542.311890,322.327179 543.278992,324.557526 541.866882,330.649323
	C538.264465,346.189392 533.646851,361.489044 530.913635,377.235504
	C528.764404,389.616943 530.668274,401.108032 538.260681,411.346313
	C542.927368,417.639313 548.594543,423.177002 552.662903,430.008057
	C551.863403,428.033264 551.063965,426.058441 549.931641,423.412689
M693.401367,292.952332
	C689.678894,295.559204 685.956360,298.166077 681.309021,301.420624
	C718.554321,294.515045 769.489990,224.860947 759.745667,195.013489
	C748.906250,235.257050 727.689148,268.131744 693.401367,292.952332
M497.374176,274.750092
	C495.024963,281.608521 491.694305,288.213531 491.836395,295.890533
	C492.616425,295.759033 492.837860,295.325684 493.035156,294.881622
	C493.507904,293.817444 494.067017,292.779633 494.420990,291.676544
	C503.964630,261.933533 516.816833,233.664536 532.118530,206.461716
	C547.044312,179.927185 565.542847,156.434296 589.513489,137.397644
	C595.013489,133.029648 601.204102,129.625214 607.591919,124.402771
	C603.237976,125.490196 600.571533,127.149925 597.886230,128.753754
	C580.052490,139.405350 565.393311,153.633667 552.694397,169.853317
	C528.115601,201.246552 511.103821,236.710144 497.374176,274.750092
M505.002411,591.245911
	C523.549072,586.521851 538.262573,575.908936 549.273132,560.630798
	C574.039978,526.264771 578.152039,488.549530 565.944214,448.569336
	C563.731384,441.322357 560.464478,434.539886 555.947571,428.158966
	C555.184204,429.455902 555.961365,430.060852 556.275635,430.766327
	C567.921509,456.906311 573.427734,483.874207 567.213867,512.400085
	C560.352356,543.898926 545.334778,569.710876 516.059143,585.540405
	C510.917480,588.320618 505.387878,590.188477 500.011200,592.501160
	C501.442657,592.164001 502.874146,591.826843 505.002411,591.245911
M572.499390,571.997375
	C577.378479,565.829651 581.517334,559.140991 584.723022,552.018311
	C597.226685,524.237061 602.685730,495.351654 597.576904,464.923401
	C592.383728,433.992584 580.807678,406.435120 556.072144,385.760742
	C554.071411,384.088470 554.090271,384.065887 551.764832,383.418091
	C582.489136,410.195923 596.474854,445.021790 596.974731,485.264587
	C597.475220,525.566772 585.027527,561.148132 554.291809,588.981445
	C561.586914,584.891479 566.879333,578.789124 572.499390,571.997375
z"/>
<path fill="#0A0A0A" opacity="1" stroke="none"
	d="
M279.094299,930.215820
	C296.212067,895.932251 316.145386,863.924622 340.770599,834.934387
	C342.893341,832.435425 345.271271,831.846191 348.186920,831.743103
	C376.821228,830.730896 404.613373,835.591980 431.694733,844.433167
	C487.267242,862.575867 535.661804,893.453369 581.109131,929.467590
	C598.348572,943.128845 615.072876,957.384216 631.224731,972.311768
	C632.402893,973.400574 634.052612,974.167786 634.330383,976.130249
	C633.062073,978.050171 631.044556,977.309204 629.365601,977.312866
	C606.042908,977.363708 582.719543,977.256409 559.397827,977.417053
	C555.508667,977.443787 552.893372,976.144531 550.401672,973.284912
	C531.343262,951.411438 509.798889,932.426331 484.722595,917.658569
	C459.135071,902.589661 431.910950,893.324463 401.762939,894.223083
	C375.703064,894.999878 352.265320,903.676758 330.437622,917.350647
	C307.108521,931.965088 288.082184,951.126465 271.821167,973.174927
	C268.323273,977.917725 266.815552,978.379150 259.572968,976.306274
	C264.868408,960.525024 271.549438,945.396301 279.094299,930.215820
z"/>
<path fill="#0A0A0A" opacity="1" stroke="none"
	d="
M654.715698,462.284607
	C652.483032,459.722473 649.720215,458.056396 648.221130,455.190308
	C650.149475,454.070862 651.107971,455.333069 652.182312,455.945648
	C674.294312,468.552887 697.360718,478.628967 722.729492,482.614258
	C724.201416,482.845459 725.800598,482.767700 726.270142,484.693359
	C728.095886,492.181305 732.505676,497.811859 738.760071,502.140869
	C739.068909,502.354584 739.074524,503.006287 739.297546,503.686707
	C736.775940,504.460999 734.690918,503.164154 732.509827,502.750732
	C729.991943,502.273468 727.298340,499.844025 725.294006,503.855713
	C724.750183,504.944061 723.137573,504.210419 722.102722,503.661316
	C719.606079,502.336578 717.190979,500.845154 714.637329,499.646088
	C713.186462,498.964844 711.914124,496.670074 709.831299,499.650116
	C708.675781,501.303589 706.200806,499.135223 704.527588,498.286621
	C686.143311,488.963165 669.384155,477.365845 654.715698,462.284607
z"/>
<path fill="#0A0A0A" opacity="1" stroke="none"
	d="
M727.132324,477.423401
	C724.545959,475.599609 721.280945,475.603149 718.942749,473.046936
	C722.169434,471.321533 725.563293,474.891205 728.527710,470.159241
	C728.278870,473.902374 729.112732,475.806213 729.833862,477.625580
	C728.810486,478.498505 728.119019,478.010040 727.132324,477.423401
z"/>
<path fill="#0A0A0A" opacity="1" stroke="none"
	d="
M757.288818,621.111206
	C755.916260,620.533936 754.720642,620.216125 754.575867,618.500244
	C756.397034,616.979187 758.374512,616.672791 760.685547,617.821350
	C760.560913,619.948486 759.529602,620.953003 757.288818,621.111206
z"/>
<path fill="#0A0A0A" opacity="1" stroke="none"
	d="
M582.047974,856.372314
	C582.855652,853.767761 583.614380,851.184570 586.497253,851.515930
	C588.887756,851.790771 589.813171,854.126831 590.124451,856.290649
	C590.495850,858.872925 589.877075,861.895996 587.425110,862.640381
	C582.451416,864.150146 582.530029,859.939392 582.047974,856.372314
z"/>
<path fill="#0A0A0A" opacity="1" stroke="none"
	d="
M441.432434,569.762268
	C416.565430,559.350159 401.670746,540.464905 394.325317,515.634338
	C384.955719,483.961151 390.349030,454.401886 410.816559,428.452393
	C439.214996,392.447845 490.515625,392.646973 519.527161,428.272827
	C548.734375,464.138916 546.825317,519.740295 514.363892,552.769470
	C494.125427,573.361938 469.473328,578.961548 441.432434,569.762268
z"/>
  </g>
</svg>
